<svg width="100" height="100" viewBox="0 0 100 100" fill="none" xmlns="http://www.w3.org/2000/svg">
<g clip-path="url(#clip0_139_121)">
<rect width="100" height="100" fill="black"/>
<path d="M2.46013 67L12.2041 35.704H20.6521L30.3961 67H22.9081L18.8761 51.16C18.4921 49.592 18.0761 47.928 17.6281 46.168C17.1801 44.408 16.7641 42.712 16.3801 41.08H16.1881C15.8041 42.712 15.4041 44.408 14.9881 46.168C14.5721 47.928 14.1561 49.592 13.7401 51.16L9.66013 67H2.46013ZM8.89213 59.56V54.04H23.8681V59.56H8.89213ZM39.9774 67L35.8014 35.704H43.1454L44.1054 52.36C44.1054 53.256 44.1214 54.136 44.1534 55C44.1854 55.832 44.2014 56.68 44.2014 57.544C44.2334 58.376 44.2494 59.272 44.2494 60.232H44.4414C44.5694 59.272 44.7134 58.376 44.8734 57.544C45.0654 56.68 45.2574 55.816 45.4494 54.952C45.6414 54.088 45.8174 53.224 45.9774 52.36L48.0894 43.624H52.6014L54.5694 52.36C54.7614 53.224 54.9374 54.072 55.0974 54.904C55.2574 55.736 55.4334 56.6 55.6254 57.496C55.8174 58.36 55.9774 59.272 56.1054 60.232H56.2974C56.3294 59.272 56.3454 58.36 56.3454 57.496C56.3774 56.6 56.3934 55.736 56.3934 54.904C56.4254 54.072 56.4574 53.224 56.4894 52.36L57.3534 35.704H64.2174L60.3774 67H52.7934L50.9694 57.304C50.7774 56.312 50.6014 55.304 50.4414 54.28C50.2814 53.256 50.1694 52.28 50.1054 51.352H49.9614C49.8654 52.28 49.7534 53.256 49.6254 54.28C49.4974 55.304 49.3374 56.312 49.1454 57.304L47.3214 67H39.9774ZM80.0386 67V41.656H70.6786V35.704H96.5026V41.656H87.1426V67H80.0386Z" fill="white"/>
</g>
<defs>
<clipPath id="clip0_139_121">
<rect width="100" height="100" fill="white"/>
</clipPath>
</defs>
</svg>
